G75*
%MOIN*%
%OFA0B0*%
%FSLAX25Y25*%
%IPPOS*%
%LPD*%
%AMOC8*
5,1,8,0,0,1.08239X$1,22.5*
%
%ADD10C,0.16548*%
%ADD11C,0.06400*%
%ADD12R,0.04737X0.04737*%
%ADD13R,0.06706X0.02375*%
%ADD14C,0.08600*%
%ADD15R,0.05918X0.06706*%
%ADD16R,0.06706X0.05918*%
%ADD17OC8,0.07400*%
%ADD18C,0.06800*%
%ADD19R,0.07100X0.05400*%
%ADD20R,0.07200X0.00600*%
%ADD21C,0.04000*%
%ADD22C,0.05800*%
D10*
X0020705Y0020705D03*
X0020705Y0268736D03*
X0290390Y0268736D03*
X0290390Y0020705D03*
D11*
X0251335Y0046133D02*
X0251335Y0051733D01*
X0241335Y0051733D02*
X0241335Y0046133D01*
X0231335Y0046133D02*
X0231335Y0051733D01*
X0221335Y0051733D02*
X0221335Y0046133D01*
X0211335Y0046133D02*
X0211335Y0051733D01*
X0099760Y0051733D02*
X0099760Y0046133D01*
X0089760Y0046133D02*
X0089760Y0051733D01*
X0079760Y0051733D02*
X0079760Y0046133D01*
X0069760Y0046133D02*
X0069760Y0051733D01*
X0059760Y0051733D02*
X0059760Y0046133D01*
X0059760Y0236133D02*
X0059760Y0241733D01*
X0069760Y0241733D02*
X0069760Y0236133D01*
X0079760Y0236133D02*
X0079760Y0241733D01*
X0089760Y0241733D02*
X0089760Y0236133D01*
X0099760Y0236133D02*
X0099760Y0241733D01*
X0211335Y0241733D02*
X0211335Y0236133D01*
X0221335Y0236133D02*
X0221335Y0241733D01*
X0231335Y0241733D02*
X0231335Y0236133D01*
X0241335Y0236133D02*
X0241335Y0241733D01*
X0251335Y0241733D02*
X0251335Y0236133D01*
D12*
X0226610Y0206531D03*
X0226610Y0201807D03*
X0226610Y0197083D03*
X0208106Y0197083D03*
X0208106Y0201807D03*
X0208106Y0206531D03*
X0191965Y0206531D03*
X0191965Y0201807D03*
X0191965Y0197083D03*
X0175823Y0197083D03*
X0175823Y0201807D03*
X0175823Y0206531D03*
X0187634Y0077791D03*
X0187634Y0073067D03*
X0187634Y0068343D03*
X0200232Y0068343D03*
X0200232Y0073067D03*
X0200232Y0077791D03*
X0212831Y0077791D03*
X0212831Y0073067D03*
X0212831Y0068343D03*
X0225429Y0068343D03*
X0225429Y0073067D03*
X0225429Y0077791D03*
X0266802Y0071125D03*
X0266802Y0066400D03*
X0266802Y0061676D03*
D13*
X0208977Y0130055D03*
X0208977Y0132614D03*
X0208977Y0135173D03*
X0208977Y0137732D03*
X0208977Y0140291D03*
X0208977Y0142850D03*
X0208977Y0145409D03*
X0208977Y0147969D03*
X0182796Y0147969D03*
X0182796Y0145409D03*
X0182796Y0142850D03*
X0182796Y0140291D03*
X0182796Y0137732D03*
X0182796Y0135173D03*
X0182796Y0132614D03*
X0182796Y0130055D03*
X0092965Y0129505D03*
X0092965Y0132064D03*
X0092965Y0134623D03*
X0092965Y0137182D03*
X0092965Y0139741D03*
X0092965Y0142300D03*
X0092965Y0144859D03*
X0092965Y0126946D03*
X0066784Y0126946D03*
X0066784Y0129505D03*
X0066784Y0132064D03*
X0066784Y0134623D03*
X0066784Y0137182D03*
X0066784Y0139741D03*
X0066784Y0142300D03*
X0066784Y0144859D03*
D14*
X0283863Y0071156D02*
X0291663Y0071156D01*
X0291663Y0051356D02*
X0283863Y0051356D01*
D15*
X0262204Y0109891D03*
X0254724Y0109891D03*
X0254727Y0119889D03*
X0262208Y0119889D03*
X0262230Y0129910D03*
X0254750Y0129910D03*
X0254724Y0139891D03*
X0262204Y0139891D03*
X0262224Y0149906D03*
X0254744Y0149906D03*
X0254732Y0160019D03*
X0262212Y0160019D03*
X0182754Y0119348D03*
X0175274Y0119348D03*
X0066765Y0117291D03*
X0059284Y0117291D03*
D16*
X0069726Y0086650D03*
X0069726Y0079169D03*
X0079630Y0079169D03*
X0079630Y0086650D03*
X0089823Y0086650D03*
X0089823Y0079169D03*
X0044211Y0159752D03*
X0044211Y0167232D03*
X0059760Y0197280D03*
X0059760Y0204760D03*
X0069760Y0204760D03*
X0069760Y0197280D03*
X0079760Y0197280D03*
X0079760Y0204760D03*
X0089760Y0204760D03*
X0089760Y0197280D03*
X0099760Y0197280D03*
X0099760Y0204760D03*
X0175902Y0177201D03*
X0175902Y0169720D03*
X0185902Y0169720D03*
X0185902Y0177201D03*
X0195902Y0177201D03*
X0195902Y0169720D03*
X0205902Y0169720D03*
X0205902Y0177201D03*
X0215902Y0177201D03*
X0215902Y0169720D03*
X0208428Y0103185D03*
X0208428Y0095705D03*
X0198428Y0095705D03*
X0198428Y0103185D03*
X0188428Y0103185D03*
X0188428Y0095705D03*
D17*
X0279484Y0189681D03*
X0279484Y0199681D03*
X0289484Y0199681D03*
X0289484Y0189681D03*
X0289484Y0209681D03*
X0279484Y0209681D03*
X0279484Y0219681D03*
X0289484Y0219681D03*
X0289484Y0229681D03*
X0279484Y0229681D03*
D18*
X0291201Y0159760D02*
X0297201Y0159760D01*
X0297201Y0149760D02*
X0291201Y0149760D01*
X0291201Y0139760D02*
X0297201Y0139760D01*
X0297201Y0129760D02*
X0291201Y0129760D01*
X0291201Y0119760D02*
X0297201Y0119760D01*
X0297201Y0109760D02*
X0291201Y0109760D01*
X0291201Y0099760D02*
X0297201Y0099760D01*
X0019711Y0099760D02*
X0013711Y0099760D01*
X0013711Y0109760D02*
X0019711Y0109760D01*
X0019711Y0119760D02*
X0013711Y0119760D01*
X0013711Y0129760D02*
X0019711Y0129760D01*
X0019711Y0139760D02*
X0013711Y0139760D01*
X0013711Y0149760D02*
X0019711Y0149760D01*
X0019711Y0159760D02*
X0013711Y0159760D01*
D19*
X0128441Y0134512D03*
X0128441Y0128512D03*
D20*
X0128441Y0131512D03*
D21*
X0139382Y0130730D03*
X0128411Y0146713D03*
X0128418Y0112043D03*
X0166732Y0140270D03*
X0170755Y0136775D03*
X0174919Y0134033D03*
X0170228Y0144574D03*
X0173637Y0148142D03*
X0170155Y0119438D03*
X0182774Y0113899D03*
X0215642Y0095174D03*
X0219647Y0092251D03*
X0232424Y0093485D03*
X0249734Y0109889D03*
X0249772Y0119878D03*
X0249783Y0119890D03*
X0249785Y0129890D03*
X0249746Y0139890D03*
X0249740Y0139896D03*
X0249609Y0149907D03*
X0249735Y0160007D03*
X0262279Y0154983D03*
X0215635Y0161758D03*
X0209612Y0154585D03*
X0200888Y0189827D03*
X0180758Y0206565D03*
X0138659Y0229674D03*
X0055360Y0154213D03*
X0051840Y0148148D03*
X0056314Y0144118D03*
X0053012Y0140843D03*
X0050036Y0137191D03*
X0054056Y0133801D03*
X0059337Y0130736D03*
X0066765Y0111984D03*
X0187633Y0063264D03*
X0200227Y0063264D03*
X0231443Y0206522D03*
D22*
X0045800Y0093559D03*
M02*
