%
M48
M72
T01C0.01181
T02C0.01299
T03C0.02756
T04C0.03600
T05C0.04000
T06C0.05200
T07C0.15748
%
T01
X59337Y130736
X139382Y130730
T02
X128411Y146713
X128418Y112043
X166732Y140270
X170755Y136775
X174919Y134033
X170228Y144574
X173637Y148142
X170155Y119438
X182774Y113899
X215642Y95174
X219647Y92251
X232424Y93485
X249734Y109889
X249772Y119878
X249783Y119890
X249785Y129890
X249746Y139890
X249740Y139896
X249609Y149907
X249735Y160007
X262279Y154983
X215635Y161758
X209612Y154585
X200888Y189827
X180758Y206565
X138659Y229674
X55360Y154213
X51840Y148148
X56314Y144118
X53012Y140843
X50036Y137191
X54056Y133801
X66765Y111984
X187633Y63264
X200227Y63264
X231443Y206522
T03
X231335Y238933
X221335Y238933
X211335Y238933
X241335Y238933
X251335Y238933
X99760Y238933
X89760Y238933
X79760Y238933
X69760Y238933
X59760Y238933
X45800Y93559
X59760Y48933
X69760Y48933
X79760Y48933
X89760Y48933
X99760Y48933
X211335Y48933
X221335Y48933
X231335Y48933
X241335Y48933
X251335Y48933
T04
X279484Y189681
X279484Y199681
X289484Y199681
X289484Y189681
X289484Y209681
X279484Y209681
X279484Y219681
X289484Y219681
X289484Y229681
X279484Y229681
T05
X294201Y159760
X294201Y149760
X294201Y139760
X294201Y129760
X294201Y119760
X294201Y109760
X294201Y99760
X16711Y99760
X16711Y109760
X16711Y119760
X16711Y129760
X16711Y139760
X16711Y149760
X16711Y159760
T06
X287763Y71156
X287763Y51356
T07
X20705Y20705
X20705Y268736
X290390Y268736
X290390Y20705
M30
